G04 #@! TF.GenerationSoftware,KiCad,Pcbnew,(5.1.4)-1*
G04 #@! TF.CreationDate,2022-05-06T12:43:24-06:00*
G04 #@! TF.ProjectId,Breadboard-Powersupply Board Jumper,42726561-6462-46f6-9172-642d506f7765,rev?*
G04 #@! TF.SameCoordinates,Original*
G04 #@! TF.FileFunction,Legend,Bot*
G04 #@! TF.FilePolarity,Positive*
%FSLAX46Y46*%
G04 Gerber Fmt 4.6, Leading zero omitted, Abs format (unit mm)*
G04 Created by KiCad (PCBNEW (5.1.4)-1) date 2022-05-06 12:43:24*
%MOMM*%
%LPD*%
G04 APERTURE LIST*
%ADD10C,0.075000*%
%ADD11C,0.067500*%
G04 APERTURE END LIST*
D10*
X148612514Y-104374190D02*
X148326800Y-104374190D01*
X148469657Y-104874190D02*
X148469657Y-104374190D01*
X147922038Y-104874190D02*
X148160133Y-104874190D01*
X148160133Y-104374190D01*
X147564895Y-104850380D02*
X147612514Y-104874190D01*
X147707752Y-104874190D01*
X147755371Y-104850380D01*
X147779180Y-104802761D01*
X147779180Y-104612285D01*
X147755371Y-104564666D01*
X147707752Y-104540857D01*
X147612514Y-104540857D01*
X147564895Y-104564666D01*
X147541085Y-104612285D01*
X147541085Y-104659904D01*
X147779180Y-104707523D01*
X147326800Y-104874190D02*
X147326800Y-104540857D01*
X147326800Y-104374190D02*
X147350609Y-104398000D01*
X147326800Y-104421809D01*
X147302990Y-104398000D01*
X147326800Y-104374190D01*
X147326800Y-104421809D01*
X147112514Y-104850380D02*
X147064895Y-104874190D01*
X146969657Y-104874190D01*
X146922038Y-104850380D01*
X146898228Y-104802761D01*
X146898228Y-104778952D01*
X146922038Y-104731333D01*
X146969657Y-104707523D01*
X147041085Y-104707523D01*
X147088704Y-104683714D01*
X147112514Y-104636095D01*
X147112514Y-104612285D01*
X147088704Y-104564666D01*
X147041085Y-104540857D01*
X146969657Y-104540857D01*
X146922038Y-104564666D01*
X146683942Y-104874190D02*
X146683942Y-104374190D01*
X146469657Y-104874190D02*
X146469657Y-104612285D01*
X146493466Y-104564666D01*
X146541085Y-104540857D01*
X146612514Y-104540857D01*
X146660133Y-104564666D01*
X146683942Y-104588476D01*
X146231561Y-104874190D02*
X146231561Y-104540857D01*
X146231561Y-104588476D02*
X146207752Y-104564666D01*
X146160133Y-104540857D01*
X146088704Y-104540857D01*
X146041085Y-104564666D01*
X146017276Y-104612285D01*
X146017276Y-104874190D01*
X146017276Y-104612285D02*
X145993466Y-104564666D01*
X145945847Y-104540857D01*
X145874419Y-104540857D01*
X145826800Y-104564666D01*
X145802990Y-104612285D01*
X145802990Y-104874190D01*
X145350609Y-104874190D02*
X145350609Y-104612285D01*
X145374419Y-104564666D01*
X145422038Y-104540857D01*
X145517276Y-104540857D01*
X145564895Y-104564666D01*
X145350609Y-104850380D02*
X145398228Y-104874190D01*
X145517276Y-104874190D01*
X145564895Y-104850380D01*
X145588704Y-104802761D01*
X145588704Y-104755142D01*
X145564895Y-104707523D01*
X145517276Y-104683714D01*
X145398228Y-104683714D01*
X145350609Y-104659904D01*
X145112514Y-104540857D02*
X145112514Y-104874190D01*
X145112514Y-104588476D02*
X145088704Y-104564666D01*
X145041085Y-104540857D01*
X144969657Y-104540857D01*
X144922038Y-104564666D01*
X144898228Y-104612285D01*
X144898228Y-104874190D01*
X144041085Y-104374190D02*
X144279180Y-104374190D01*
X144302990Y-104612285D01*
X144279180Y-104588476D01*
X144231561Y-104564666D01*
X144112514Y-104564666D01*
X144064895Y-104588476D01*
X144041085Y-104612285D01*
X144017276Y-104659904D01*
X144017276Y-104778952D01*
X144041085Y-104826571D01*
X144064895Y-104850380D01*
X144112514Y-104874190D01*
X144231561Y-104874190D01*
X144279180Y-104850380D01*
X144302990Y-104826571D01*
X143445847Y-104350380D02*
X143874419Y-104993238D01*
X143064895Y-104374190D02*
X143160133Y-104374190D01*
X143207752Y-104398000D01*
X143231561Y-104421809D01*
X143279180Y-104493238D01*
X143302990Y-104588476D01*
X143302990Y-104778952D01*
X143279180Y-104826571D01*
X143255371Y-104850380D01*
X143207752Y-104874190D01*
X143112514Y-104874190D01*
X143064895Y-104850380D01*
X143041085Y-104826571D01*
X143017276Y-104778952D01*
X143017276Y-104659904D01*
X143041085Y-104612285D01*
X143064895Y-104588476D01*
X143112514Y-104564666D01*
X143207752Y-104564666D01*
X143255371Y-104588476D01*
X143279180Y-104612285D01*
X143302990Y-104659904D01*
X142445847Y-104350380D02*
X142874419Y-104993238D01*
X142302990Y-104421809D02*
X142279180Y-104398000D01*
X142231561Y-104374190D01*
X142112514Y-104374190D01*
X142064895Y-104398000D01*
X142041085Y-104421809D01*
X142017276Y-104469428D01*
X142017276Y-104517047D01*
X142041085Y-104588476D01*
X142326800Y-104874190D01*
X142017276Y-104874190D01*
X141707752Y-104374190D02*
X141660133Y-104374190D01*
X141612514Y-104398000D01*
X141588704Y-104421809D01*
X141564895Y-104469428D01*
X141541085Y-104564666D01*
X141541085Y-104683714D01*
X141564895Y-104778952D01*
X141588704Y-104826571D01*
X141612514Y-104850380D01*
X141660133Y-104874190D01*
X141707752Y-104874190D01*
X141755371Y-104850380D01*
X141779180Y-104826571D01*
X141802990Y-104778952D01*
X141826800Y-104683714D01*
X141826800Y-104564666D01*
X141802990Y-104469428D01*
X141779180Y-104421809D01*
X141755371Y-104398000D01*
X141707752Y-104374190D01*
X141350609Y-104421809D02*
X141326800Y-104398000D01*
X141279180Y-104374190D01*
X141160133Y-104374190D01*
X141112514Y-104398000D01*
X141088704Y-104421809D01*
X141064895Y-104469428D01*
X141064895Y-104517047D01*
X141088704Y-104588476D01*
X141374419Y-104874190D01*
X141064895Y-104874190D01*
X140874419Y-104421809D02*
X140850609Y-104398000D01*
X140802990Y-104374190D01*
X140683942Y-104374190D01*
X140636323Y-104398000D01*
X140612514Y-104421809D01*
X140588704Y-104469428D01*
X140588704Y-104517047D01*
X140612514Y-104588476D01*
X140898228Y-104874190D01*
X140588704Y-104874190D01*
D11*
X150633142Y-112144152D02*
X150633142Y-111744152D01*
X150504571Y-112144152D02*
X150504571Y-111934628D01*
X150518857Y-111896533D01*
X150547428Y-111877485D01*
X150590285Y-111877485D01*
X150618857Y-111896533D01*
X150633142Y-111915580D01*
X150404571Y-111877485D02*
X150290285Y-111877485D01*
X150361714Y-111744152D02*
X150361714Y-112087009D01*
X150347428Y-112125104D01*
X150318857Y-112144152D01*
X150290285Y-112144152D01*
X150233142Y-111877485D02*
X150118857Y-111877485D01*
X150190285Y-111744152D02*
X150190285Y-112087009D01*
X150176000Y-112125104D01*
X150147428Y-112144152D01*
X150118857Y-112144152D01*
X150018857Y-111877485D02*
X150018857Y-112277485D01*
X150018857Y-111896533D02*
X149990285Y-111877485D01*
X149933142Y-111877485D01*
X149904571Y-111896533D01*
X149890285Y-111915580D01*
X149876000Y-111953676D01*
X149876000Y-112067961D01*
X149890285Y-112106057D01*
X149904571Y-112125104D01*
X149933142Y-112144152D01*
X149990285Y-112144152D01*
X150018857Y-112125104D01*
X149761714Y-112125104D02*
X149733142Y-112144152D01*
X149676000Y-112144152D01*
X149647428Y-112125104D01*
X149633142Y-112087009D01*
X149633142Y-112067961D01*
X149647428Y-112029866D01*
X149676000Y-112010819D01*
X149718857Y-112010819D01*
X149747428Y-111991771D01*
X149761714Y-111953676D01*
X149761714Y-111934628D01*
X149747428Y-111896533D01*
X149718857Y-111877485D01*
X149676000Y-111877485D01*
X149647428Y-111896533D01*
X149504571Y-112106057D02*
X149490285Y-112125104D01*
X149504571Y-112144152D01*
X149518857Y-112125104D01*
X149504571Y-112106057D01*
X149504571Y-112144152D01*
X149504571Y-111896533D02*
X149490285Y-111915580D01*
X149504571Y-111934628D01*
X149518857Y-111915580D01*
X149504571Y-111896533D01*
X149504571Y-111934628D01*
X149147428Y-111725104D02*
X149404571Y-112239390D01*
X148833142Y-111725104D02*
X149090285Y-112239390D01*
X148604571Y-111877485D02*
X148604571Y-112201295D01*
X148618857Y-112239390D01*
X148633142Y-112258438D01*
X148661714Y-112277485D01*
X148704571Y-112277485D01*
X148733142Y-112258438D01*
X148604571Y-112125104D02*
X148633142Y-112144152D01*
X148690285Y-112144152D01*
X148718857Y-112125104D01*
X148733142Y-112106057D01*
X148747428Y-112067961D01*
X148747428Y-111953676D01*
X148733142Y-111915580D01*
X148718857Y-111896533D01*
X148690285Y-111877485D01*
X148633142Y-111877485D01*
X148604571Y-111896533D01*
X148461714Y-112144152D02*
X148461714Y-111877485D01*
X148461714Y-111744152D02*
X148476000Y-111763200D01*
X148461714Y-111782247D01*
X148447428Y-111763200D01*
X148461714Y-111744152D01*
X148461714Y-111782247D01*
X148361714Y-111877485D02*
X148247428Y-111877485D01*
X148318857Y-111744152D02*
X148318857Y-112087009D01*
X148304571Y-112125104D01*
X148276000Y-112144152D01*
X148247428Y-112144152D01*
X148147428Y-112144152D02*
X148147428Y-111744152D01*
X148018857Y-112144152D02*
X148018857Y-111934628D01*
X148033142Y-111896533D01*
X148061714Y-111877485D01*
X148104571Y-111877485D01*
X148133142Y-111896533D01*
X148147428Y-111915580D01*
X147747428Y-111877485D02*
X147747428Y-112144152D01*
X147876000Y-111877485D02*
X147876000Y-112087009D01*
X147861714Y-112125104D01*
X147833142Y-112144152D01*
X147790285Y-112144152D01*
X147761714Y-112125104D01*
X147747428Y-112106057D01*
X147604571Y-112144152D02*
X147604571Y-111744152D01*
X147604571Y-111896533D02*
X147576000Y-111877485D01*
X147518857Y-111877485D01*
X147490285Y-111896533D01*
X147476000Y-111915580D01*
X147461714Y-111953676D01*
X147461714Y-112067961D01*
X147476000Y-112106057D01*
X147490285Y-112125104D01*
X147518857Y-112144152D01*
X147576000Y-112144152D01*
X147604571Y-112125104D01*
X147333142Y-112106057D02*
X147318857Y-112125104D01*
X147333142Y-112144152D01*
X147347428Y-112125104D01*
X147333142Y-112106057D01*
X147333142Y-112144152D01*
X147061714Y-112125104D02*
X147090285Y-112144152D01*
X147147428Y-112144152D01*
X147176000Y-112125104D01*
X147190285Y-112106057D01*
X147204571Y-112067961D01*
X147204571Y-111953676D01*
X147190285Y-111915580D01*
X147176000Y-111896533D01*
X147147428Y-111877485D01*
X147090285Y-111877485D01*
X147061714Y-111896533D01*
X146890285Y-112144152D02*
X146918857Y-112125104D01*
X146933142Y-112106057D01*
X146947428Y-112067961D01*
X146947428Y-111953676D01*
X146933142Y-111915580D01*
X146918857Y-111896533D01*
X146890285Y-111877485D01*
X146847428Y-111877485D01*
X146818857Y-111896533D01*
X146804571Y-111915580D01*
X146790285Y-111953676D01*
X146790285Y-112067961D01*
X146804571Y-112106057D01*
X146818857Y-112125104D01*
X146847428Y-112144152D01*
X146890285Y-112144152D01*
X146661714Y-112144152D02*
X146661714Y-111877485D01*
X146661714Y-111915580D02*
X146647428Y-111896533D01*
X146618857Y-111877485D01*
X146576000Y-111877485D01*
X146547428Y-111896533D01*
X146533142Y-111934628D01*
X146533142Y-112144152D01*
X146533142Y-111934628D02*
X146518857Y-111896533D01*
X146490285Y-111877485D01*
X146447428Y-111877485D01*
X146418857Y-111896533D01*
X146404571Y-111934628D01*
X146404571Y-112144152D01*
X146047428Y-111725104D02*
X146304571Y-112239390D01*
X145904571Y-112144152D02*
X145933142Y-112125104D01*
X145947428Y-112087009D01*
X145947428Y-111744152D01*
X145676000Y-112125104D02*
X145704571Y-112144152D01*
X145761714Y-112144152D01*
X145790285Y-112125104D01*
X145804571Y-112087009D01*
X145804571Y-111934628D01*
X145790285Y-111896533D01*
X145761714Y-111877485D01*
X145704571Y-111877485D01*
X145676000Y-111896533D01*
X145661714Y-111934628D01*
X145661714Y-111972723D01*
X145804571Y-112010819D01*
X145533142Y-112144152D02*
X145533142Y-111877485D01*
X145533142Y-111744152D02*
X145547428Y-111763200D01*
X145533142Y-111782247D01*
X145518857Y-111763200D01*
X145533142Y-111744152D01*
X145533142Y-111782247D01*
X145404571Y-112125104D02*
X145376000Y-112144152D01*
X145318857Y-112144152D01*
X145290285Y-112125104D01*
X145276000Y-112087009D01*
X145276000Y-112067961D01*
X145290285Y-112029866D01*
X145318857Y-112010819D01*
X145361714Y-112010819D01*
X145390285Y-111991771D01*
X145404571Y-111953676D01*
X145404571Y-111934628D01*
X145390285Y-111896533D01*
X145361714Y-111877485D01*
X145318857Y-111877485D01*
X145290285Y-111896533D01*
X145190285Y-111877485D02*
X145076000Y-111877485D01*
X145147428Y-111744152D02*
X145147428Y-112087009D01*
X145133142Y-112125104D01*
X145104571Y-112144152D01*
X145076000Y-112144152D01*
X144976000Y-112144152D02*
X144976000Y-111877485D01*
X144976000Y-111744152D02*
X144990285Y-111763200D01*
X144976000Y-111782247D01*
X144961714Y-111763200D01*
X144976000Y-111744152D01*
X144976000Y-111782247D01*
X144833142Y-112144152D02*
X144833142Y-111877485D01*
X144833142Y-111915580D02*
X144818857Y-111896533D01*
X144790285Y-111877485D01*
X144747428Y-111877485D01*
X144718857Y-111896533D01*
X144704571Y-111934628D01*
X144704571Y-112144152D01*
X144704571Y-111934628D02*
X144690285Y-111896533D01*
X144661714Y-111877485D01*
X144618857Y-111877485D01*
X144590285Y-111896533D01*
X144576000Y-111934628D01*
X144576000Y-112144152D01*
X144390285Y-112144152D02*
X144418857Y-112125104D01*
X144433142Y-112106057D01*
X144447428Y-112067961D01*
X144447428Y-111953676D01*
X144433142Y-111915580D01*
X144418857Y-111896533D01*
X144390285Y-111877485D01*
X144347428Y-111877485D01*
X144318857Y-111896533D01*
X144304571Y-111915580D01*
X144290285Y-111953676D01*
X144290285Y-112067961D01*
X144304571Y-112106057D01*
X144318857Y-112125104D01*
X144347428Y-112144152D01*
X144390285Y-112144152D01*
X143947428Y-111725104D02*
X144204571Y-112239390D01*
X143747428Y-111934628D02*
X143704571Y-111953676D01*
X143690285Y-111972723D01*
X143676000Y-112010819D01*
X143676000Y-112067961D01*
X143690285Y-112106057D01*
X143704571Y-112125104D01*
X143733142Y-112144152D01*
X143847428Y-112144152D01*
X143847428Y-111744152D01*
X143747428Y-111744152D01*
X143718857Y-111763200D01*
X143704571Y-111782247D01*
X143690285Y-111820342D01*
X143690285Y-111858438D01*
X143704571Y-111896533D01*
X143718857Y-111915580D01*
X143747428Y-111934628D01*
X143847428Y-111934628D01*
X143447428Y-111934628D02*
X143404571Y-111953676D01*
X143390285Y-111972723D01*
X143376000Y-112010819D01*
X143376000Y-112067961D01*
X143390285Y-112106057D01*
X143404571Y-112125104D01*
X143433142Y-112144152D01*
X143547428Y-112144152D01*
X143547428Y-111744152D01*
X143447428Y-111744152D01*
X143418857Y-111763200D01*
X143404571Y-111782247D01*
X143390285Y-111820342D01*
X143390285Y-111858438D01*
X143404571Y-111896533D01*
X143418857Y-111915580D01*
X143447428Y-111934628D01*
X143547428Y-111934628D01*
X143247428Y-112144152D02*
X143247428Y-111744152D01*
X143133142Y-111744152D01*
X143104571Y-111763200D01*
X143090285Y-111782247D01*
X143076000Y-111820342D01*
X143076000Y-111877485D01*
X143090285Y-111915580D01*
X143104571Y-111934628D01*
X143133142Y-111953676D01*
X143247428Y-111953676D01*
X142961714Y-112125104D02*
X142918857Y-112144152D01*
X142847428Y-112144152D01*
X142818857Y-112125104D01*
X142804571Y-112106057D01*
X142790285Y-112067961D01*
X142790285Y-112029866D01*
X142804571Y-111991771D01*
X142818857Y-111972723D01*
X142847428Y-111953676D01*
X142904571Y-111934628D01*
X142933142Y-111915580D01*
X142947428Y-111896533D01*
X142961714Y-111858438D01*
X142961714Y-111820342D01*
X142947428Y-111782247D01*
X142933142Y-111763200D01*
X142904571Y-111744152D01*
X142833142Y-111744152D01*
X142790285Y-111763200D01*
X142661714Y-111991771D02*
X142433142Y-111991771D01*
X142190285Y-111934628D02*
X142147428Y-111953676D01*
X142133142Y-111972723D01*
X142118857Y-112010819D01*
X142118857Y-112067961D01*
X142133142Y-112106057D01*
X142147428Y-112125104D01*
X142176000Y-112144152D01*
X142290285Y-112144152D01*
X142290285Y-111744152D01*
X142190285Y-111744152D01*
X142161714Y-111763200D01*
X142147428Y-111782247D01*
X142133142Y-111820342D01*
X142133142Y-111858438D01*
X142147428Y-111896533D01*
X142161714Y-111915580D01*
X142190285Y-111934628D01*
X142290285Y-111934628D01*
X141947428Y-112144152D02*
X141976000Y-112125104D01*
X141990285Y-112106057D01*
X142004571Y-112067961D01*
X142004571Y-111953676D01*
X141990285Y-111915580D01*
X141976000Y-111896533D01*
X141947428Y-111877485D01*
X141904571Y-111877485D01*
X141876000Y-111896533D01*
X141861714Y-111915580D01*
X141847428Y-111953676D01*
X141847428Y-112067961D01*
X141861714Y-112106057D01*
X141876000Y-112125104D01*
X141904571Y-112144152D01*
X141947428Y-112144152D01*
X141590285Y-112144152D02*
X141590285Y-111934628D01*
X141604571Y-111896533D01*
X141633142Y-111877485D01*
X141690285Y-111877485D01*
X141718857Y-111896533D01*
X141590285Y-112125104D02*
X141618857Y-112144152D01*
X141690285Y-112144152D01*
X141718857Y-112125104D01*
X141733142Y-112087009D01*
X141733142Y-112048914D01*
X141718857Y-112010819D01*
X141690285Y-111991771D01*
X141618857Y-111991771D01*
X141590285Y-111972723D01*
X141447428Y-112144152D02*
X141447428Y-111877485D01*
X141447428Y-111953676D02*
X141433142Y-111915580D01*
X141418857Y-111896533D01*
X141390285Y-111877485D01*
X141361714Y-111877485D01*
X141133142Y-112144152D02*
X141133142Y-111744152D01*
X141133142Y-112125104D02*
X141161714Y-112144152D01*
X141218857Y-112144152D01*
X141247428Y-112125104D01*
X141261714Y-112106057D01*
X141276000Y-112067961D01*
X141276000Y-111953676D01*
X141261714Y-111915580D01*
X141247428Y-111896533D01*
X141218857Y-111877485D01*
X141161714Y-111877485D01*
X141133142Y-111896533D01*
X140990285Y-111991771D02*
X140761714Y-111991771D01*
X140533142Y-111744152D02*
X140533142Y-112029866D01*
X140547428Y-112087009D01*
X140576000Y-112125104D01*
X140618857Y-112144152D01*
X140647428Y-112144152D01*
X140261714Y-111877485D02*
X140261714Y-112144152D01*
X140390285Y-111877485D02*
X140390285Y-112087009D01*
X140376000Y-112125104D01*
X140347428Y-112144152D01*
X140304571Y-112144152D01*
X140276000Y-112125104D01*
X140261714Y-112106057D01*
X140118857Y-112144152D02*
X140118857Y-111877485D01*
X140118857Y-111915580D02*
X140104571Y-111896533D01*
X140076000Y-111877485D01*
X140033142Y-111877485D01*
X140004571Y-111896533D01*
X139990285Y-111934628D01*
X139990285Y-112144152D01*
X139990285Y-111934628D02*
X139976000Y-111896533D01*
X139947428Y-111877485D01*
X139904571Y-111877485D01*
X139876000Y-111896533D01*
X139861714Y-111934628D01*
X139861714Y-112144152D01*
X139718857Y-111877485D02*
X139718857Y-112277485D01*
X139718857Y-111896533D02*
X139690285Y-111877485D01*
X139633142Y-111877485D01*
X139604571Y-111896533D01*
X139590285Y-111915580D01*
X139576000Y-111953676D01*
X139576000Y-112067961D01*
X139590285Y-112106057D01*
X139604571Y-112125104D01*
X139633142Y-112144152D01*
X139690285Y-112144152D01*
X139718857Y-112125104D01*
X139333142Y-112125104D02*
X139361714Y-112144152D01*
X139418857Y-112144152D01*
X139447428Y-112125104D01*
X139461714Y-112087009D01*
X139461714Y-111934628D01*
X139447428Y-111896533D01*
X139418857Y-111877485D01*
X139361714Y-111877485D01*
X139333142Y-111896533D01*
X139318857Y-111934628D01*
X139318857Y-111972723D01*
X139461714Y-112010819D01*
X139190285Y-112144152D02*
X139190285Y-111877485D01*
X139190285Y-111953676D02*
X139176000Y-111915580D01*
X139161714Y-111896533D01*
X139133142Y-111877485D01*
X139104571Y-111877485D01*
X139004571Y-112106057D02*
X138990285Y-112125104D01*
X139004571Y-112144152D01*
X139018857Y-112125104D01*
X139004571Y-112106057D01*
X139004571Y-112144152D01*
X138733142Y-111877485D02*
X138733142Y-112201295D01*
X138747428Y-112239390D01*
X138761714Y-112258438D01*
X138790285Y-112277485D01*
X138833142Y-112277485D01*
X138861714Y-112258438D01*
X138733142Y-112125104D02*
X138761714Y-112144152D01*
X138818857Y-112144152D01*
X138847428Y-112125104D01*
X138861714Y-112106057D01*
X138876000Y-112067961D01*
X138876000Y-111953676D01*
X138861714Y-111915580D01*
X138847428Y-111896533D01*
X138818857Y-111877485D01*
X138761714Y-111877485D01*
X138733142Y-111896533D01*
X138590285Y-112144152D02*
X138590285Y-111877485D01*
X138590285Y-111744152D02*
X138604571Y-111763200D01*
X138590285Y-111782247D01*
X138576000Y-111763200D01*
X138590285Y-111744152D01*
X138590285Y-111782247D01*
X138490285Y-111877485D02*
X138376000Y-111877485D01*
X138447428Y-111744152D02*
X138447428Y-112087009D01*
X138433142Y-112125104D01*
X138404571Y-112144152D01*
X138376000Y-112144152D01*
M02*
