G04 #@! TF.GenerationSoftware,KiCad,Pcbnew,(5.1.4)-1*
G04 #@! TF.CreationDate,2022-05-06T12:43:24-06:00*
G04 #@! TF.ProjectId,Breadboard-Powersupply Board Jumper,42726561-6462-46f6-9172-642d506f7765,rev?*
G04 #@! TF.SameCoordinates,Original*
G04 #@! TF.FileFunction,Copper,L1,Top*
G04 #@! TF.FilePolarity,Positive*
%FSLAX46Y46*%
G04 Gerber Fmt 4.6, Leading zero omitted, Abs format (unit mm)*
G04 Created by KiCad (PCBNEW (5.1.4)-1) date 2022-05-06 12:43:24*
%MOMM*%
%LPD*%
G04 APERTURE LIST*
%ADD10O,1.700000X1.700000*%
%ADD11R,1.700000X1.700000*%
%ADD12C,0.254000*%
G04 APERTURE END LIST*
D10*
X149606000Y-107086400D03*
X149606000Y-109626400D03*
X147066000Y-107086400D03*
D11*
X147066000Y-109626400D03*
D10*
X141986000Y-107086400D03*
X141986000Y-109626400D03*
X139446000Y-107086400D03*
D11*
X139446000Y-109626400D03*
D12*
G36*
X150821347Y-104187216D02*
G01*
X151257432Y-104318878D01*
X151659635Y-104532732D01*
X152012640Y-104820637D01*
X152303002Y-105171623D01*
X152519660Y-105572323D01*
X152654364Y-106007481D01*
X152705200Y-106491164D01*
X152705201Y-110102111D01*
X152657584Y-110587748D01*
X152525922Y-111023831D01*
X152312067Y-111426036D01*
X152024163Y-111779040D01*
X151673174Y-112069403D01*
X151272477Y-112286060D01*
X150837319Y-112420764D01*
X150353644Y-112471600D01*
X138716279Y-112471600D01*
X138230652Y-112423984D01*
X137794569Y-112292322D01*
X137392364Y-112078467D01*
X137039360Y-111790563D01*
X136748997Y-111439574D01*
X136532340Y-111038877D01*
X136397636Y-110603719D01*
X136384255Y-110476400D01*
X137957928Y-110476400D01*
X137970188Y-110600882D01*
X138006498Y-110720580D01*
X138065463Y-110830894D01*
X138144815Y-110927585D01*
X138241506Y-111006937D01*
X138351820Y-111065902D01*
X138471518Y-111102212D01*
X138596000Y-111114472D01*
X139160250Y-111111400D01*
X139319000Y-110952650D01*
X139319000Y-109753400D01*
X138119750Y-109753400D01*
X137961000Y-109912150D01*
X137957928Y-110476400D01*
X136384255Y-110476400D01*
X136346800Y-110120044D01*
X136346800Y-108776400D01*
X137957928Y-108776400D01*
X137961000Y-109340650D01*
X138119750Y-109499400D01*
X139319000Y-109499400D01*
X139319000Y-107213400D01*
X138125186Y-107213400D01*
X138004519Y-107443291D01*
X138101843Y-107717652D01*
X138250822Y-107967755D01*
X138427626Y-108163902D01*
X138351820Y-108186898D01*
X138241506Y-108245863D01*
X138144815Y-108325215D01*
X138065463Y-108421906D01*
X138006498Y-108532220D01*
X137970188Y-108651918D01*
X137957928Y-108776400D01*
X136346800Y-108776400D01*
X136346800Y-106729509D01*
X138004519Y-106729509D01*
X138125186Y-106959400D01*
X139319000Y-106959400D01*
X139319000Y-105766245D01*
X139573000Y-105766245D01*
X139573000Y-106959400D01*
X139593000Y-106959400D01*
X139593000Y-107213400D01*
X139573000Y-107213400D01*
X139573000Y-109499400D01*
X139593000Y-109499400D01*
X139593000Y-109753400D01*
X139573000Y-109753400D01*
X139573000Y-110952650D01*
X139731750Y-111111400D01*
X140296000Y-111114472D01*
X140420482Y-111102212D01*
X140540180Y-111065902D01*
X140650494Y-111006937D01*
X140747185Y-110927585D01*
X140826537Y-110830894D01*
X140885502Y-110720580D01*
X140906393Y-110651713D01*
X140930866Y-110681534D01*
X141156986Y-110867106D01*
X141414966Y-111004999D01*
X141694889Y-111089913D01*
X141913050Y-111111400D01*
X142058950Y-111111400D01*
X142277111Y-111089913D01*
X142557034Y-111004999D01*
X142815014Y-110867106D01*
X143041134Y-110681534D01*
X143209483Y-110476400D01*
X145577928Y-110476400D01*
X145590188Y-110600882D01*
X145626498Y-110720580D01*
X145685463Y-110830894D01*
X145764815Y-110927585D01*
X145861506Y-111006937D01*
X145971820Y-111065902D01*
X146091518Y-111102212D01*
X146216000Y-111114472D01*
X146780250Y-111111400D01*
X146939000Y-110952650D01*
X146939000Y-109753400D01*
X145739750Y-109753400D01*
X145581000Y-109912150D01*
X145577928Y-110476400D01*
X143209483Y-110476400D01*
X143226706Y-110455414D01*
X143364599Y-110197434D01*
X143449513Y-109917511D01*
X143478185Y-109626400D01*
X143449513Y-109335289D01*
X143364599Y-109055366D01*
X143226706Y-108797386D01*
X143209484Y-108776400D01*
X145577928Y-108776400D01*
X145581000Y-109340650D01*
X145739750Y-109499400D01*
X146939000Y-109499400D01*
X146939000Y-107213400D01*
X145745186Y-107213400D01*
X145624519Y-107443291D01*
X145721843Y-107717652D01*
X145870822Y-107967755D01*
X146047626Y-108163902D01*
X145971820Y-108186898D01*
X145861506Y-108245863D01*
X145764815Y-108325215D01*
X145685463Y-108421906D01*
X145626498Y-108532220D01*
X145590188Y-108651918D01*
X145577928Y-108776400D01*
X143209484Y-108776400D01*
X143041134Y-108571266D01*
X142815014Y-108385694D01*
X142760209Y-108356400D01*
X142815014Y-108327106D01*
X143041134Y-108141534D01*
X143226706Y-107915414D01*
X143364599Y-107657434D01*
X143449513Y-107377511D01*
X143478185Y-107086400D01*
X143449513Y-106795289D01*
X143429559Y-106729509D01*
X145624519Y-106729509D01*
X145745186Y-106959400D01*
X146939000Y-106959400D01*
X146939000Y-105766245D01*
X147193000Y-105766245D01*
X147193000Y-106959400D01*
X147213000Y-106959400D01*
X147213000Y-107213400D01*
X147193000Y-107213400D01*
X147193000Y-109499400D01*
X147213000Y-109499400D01*
X147213000Y-109753400D01*
X147193000Y-109753400D01*
X147193000Y-110952650D01*
X147351750Y-111111400D01*
X147916000Y-111114472D01*
X148040482Y-111102212D01*
X148160180Y-111065902D01*
X148270494Y-111006937D01*
X148367185Y-110927585D01*
X148446537Y-110830894D01*
X148505502Y-110720580D01*
X148526393Y-110651713D01*
X148550866Y-110681534D01*
X148776986Y-110867106D01*
X149034966Y-111004999D01*
X149314889Y-111089913D01*
X149533050Y-111111400D01*
X149678950Y-111111400D01*
X149897111Y-111089913D01*
X150177034Y-111004999D01*
X150435014Y-110867106D01*
X150661134Y-110681534D01*
X150846706Y-110455414D01*
X150984599Y-110197434D01*
X151069513Y-109917511D01*
X151098185Y-109626400D01*
X151069513Y-109335289D01*
X150984599Y-109055366D01*
X150846706Y-108797386D01*
X150661134Y-108571266D01*
X150435014Y-108385694D01*
X150380209Y-108356400D01*
X150435014Y-108327106D01*
X150661134Y-108141534D01*
X150846706Y-107915414D01*
X150984599Y-107657434D01*
X151069513Y-107377511D01*
X151098185Y-107086400D01*
X151069513Y-106795289D01*
X150984599Y-106515366D01*
X150846706Y-106257386D01*
X150661134Y-106031266D01*
X150435014Y-105845694D01*
X150177034Y-105707801D01*
X149897111Y-105622887D01*
X149678950Y-105601400D01*
X149533050Y-105601400D01*
X149314889Y-105622887D01*
X149034966Y-105707801D01*
X148776986Y-105845694D01*
X148550866Y-106031266D01*
X148365294Y-106257386D01*
X148330799Y-106321923D01*
X148261178Y-106205045D01*
X148066269Y-105988812D01*
X147832920Y-105814759D01*
X147570099Y-105689575D01*
X147422890Y-105644924D01*
X147193000Y-105766245D01*
X146939000Y-105766245D01*
X146709110Y-105644924D01*
X146561901Y-105689575D01*
X146299080Y-105814759D01*
X146065731Y-105988812D01*
X145870822Y-106205045D01*
X145721843Y-106455148D01*
X145624519Y-106729509D01*
X143429559Y-106729509D01*
X143364599Y-106515366D01*
X143226706Y-106257386D01*
X143041134Y-106031266D01*
X142815014Y-105845694D01*
X142557034Y-105707801D01*
X142277111Y-105622887D01*
X142058950Y-105601400D01*
X141913050Y-105601400D01*
X141694889Y-105622887D01*
X141414966Y-105707801D01*
X141156986Y-105845694D01*
X140930866Y-106031266D01*
X140745294Y-106257386D01*
X140710799Y-106321923D01*
X140641178Y-106205045D01*
X140446269Y-105988812D01*
X140212920Y-105814759D01*
X139950099Y-105689575D01*
X139802890Y-105644924D01*
X139573000Y-105766245D01*
X139319000Y-105766245D01*
X139089110Y-105644924D01*
X138941901Y-105689575D01*
X138679080Y-105814759D01*
X138445731Y-105988812D01*
X138250822Y-106205045D01*
X138101843Y-106455148D01*
X138004519Y-106729509D01*
X136346800Y-106729509D01*
X136346800Y-106509079D01*
X136394416Y-106023453D01*
X136526078Y-105587368D01*
X136739932Y-105185165D01*
X137027837Y-104832160D01*
X137378823Y-104541798D01*
X137779523Y-104325140D01*
X138214681Y-104190436D01*
X138698364Y-104139600D01*
X150335721Y-104139600D01*
X150821347Y-104187216D01*
X150821347Y-104187216D01*
G37*
X150821347Y-104187216D02*
X151257432Y-104318878D01*
X151659635Y-104532732D01*
X152012640Y-104820637D01*
X152303002Y-105171623D01*
X152519660Y-105572323D01*
X152654364Y-106007481D01*
X152705200Y-106491164D01*
X152705201Y-110102111D01*
X152657584Y-110587748D01*
X152525922Y-111023831D01*
X152312067Y-111426036D01*
X152024163Y-111779040D01*
X151673174Y-112069403D01*
X151272477Y-112286060D01*
X150837319Y-112420764D01*
X150353644Y-112471600D01*
X138716279Y-112471600D01*
X138230652Y-112423984D01*
X137794569Y-112292322D01*
X137392364Y-112078467D01*
X137039360Y-111790563D01*
X136748997Y-111439574D01*
X136532340Y-111038877D01*
X136397636Y-110603719D01*
X136384255Y-110476400D01*
X137957928Y-110476400D01*
X137970188Y-110600882D01*
X138006498Y-110720580D01*
X138065463Y-110830894D01*
X138144815Y-110927585D01*
X138241506Y-111006937D01*
X138351820Y-111065902D01*
X138471518Y-111102212D01*
X138596000Y-111114472D01*
X139160250Y-111111400D01*
X139319000Y-110952650D01*
X139319000Y-109753400D01*
X138119750Y-109753400D01*
X137961000Y-109912150D01*
X137957928Y-110476400D01*
X136384255Y-110476400D01*
X136346800Y-110120044D01*
X136346800Y-108776400D01*
X137957928Y-108776400D01*
X137961000Y-109340650D01*
X138119750Y-109499400D01*
X139319000Y-109499400D01*
X139319000Y-107213400D01*
X138125186Y-107213400D01*
X138004519Y-107443291D01*
X138101843Y-107717652D01*
X138250822Y-107967755D01*
X138427626Y-108163902D01*
X138351820Y-108186898D01*
X138241506Y-108245863D01*
X138144815Y-108325215D01*
X138065463Y-108421906D01*
X138006498Y-108532220D01*
X137970188Y-108651918D01*
X137957928Y-108776400D01*
X136346800Y-108776400D01*
X136346800Y-106729509D01*
X138004519Y-106729509D01*
X138125186Y-106959400D01*
X139319000Y-106959400D01*
X139319000Y-105766245D01*
X139573000Y-105766245D01*
X139573000Y-106959400D01*
X139593000Y-106959400D01*
X139593000Y-107213400D01*
X139573000Y-107213400D01*
X139573000Y-109499400D01*
X139593000Y-109499400D01*
X139593000Y-109753400D01*
X139573000Y-109753400D01*
X139573000Y-110952650D01*
X139731750Y-111111400D01*
X140296000Y-111114472D01*
X140420482Y-111102212D01*
X140540180Y-111065902D01*
X140650494Y-111006937D01*
X140747185Y-110927585D01*
X140826537Y-110830894D01*
X140885502Y-110720580D01*
X140906393Y-110651713D01*
X140930866Y-110681534D01*
X141156986Y-110867106D01*
X141414966Y-111004999D01*
X141694889Y-111089913D01*
X141913050Y-111111400D01*
X142058950Y-111111400D01*
X142277111Y-111089913D01*
X142557034Y-111004999D01*
X142815014Y-110867106D01*
X143041134Y-110681534D01*
X143209483Y-110476400D01*
X145577928Y-110476400D01*
X145590188Y-110600882D01*
X145626498Y-110720580D01*
X145685463Y-110830894D01*
X145764815Y-110927585D01*
X145861506Y-111006937D01*
X145971820Y-111065902D01*
X146091518Y-111102212D01*
X146216000Y-111114472D01*
X146780250Y-111111400D01*
X146939000Y-110952650D01*
X146939000Y-109753400D01*
X145739750Y-109753400D01*
X145581000Y-109912150D01*
X145577928Y-110476400D01*
X143209483Y-110476400D01*
X143226706Y-110455414D01*
X143364599Y-110197434D01*
X143449513Y-109917511D01*
X143478185Y-109626400D01*
X143449513Y-109335289D01*
X143364599Y-109055366D01*
X143226706Y-108797386D01*
X143209484Y-108776400D01*
X145577928Y-108776400D01*
X145581000Y-109340650D01*
X145739750Y-109499400D01*
X146939000Y-109499400D01*
X146939000Y-107213400D01*
X145745186Y-107213400D01*
X145624519Y-107443291D01*
X145721843Y-107717652D01*
X145870822Y-107967755D01*
X146047626Y-108163902D01*
X145971820Y-108186898D01*
X145861506Y-108245863D01*
X145764815Y-108325215D01*
X145685463Y-108421906D01*
X145626498Y-108532220D01*
X145590188Y-108651918D01*
X145577928Y-108776400D01*
X143209484Y-108776400D01*
X143041134Y-108571266D01*
X142815014Y-108385694D01*
X142760209Y-108356400D01*
X142815014Y-108327106D01*
X143041134Y-108141534D01*
X143226706Y-107915414D01*
X143364599Y-107657434D01*
X143449513Y-107377511D01*
X143478185Y-107086400D01*
X143449513Y-106795289D01*
X143429559Y-106729509D01*
X145624519Y-106729509D01*
X145745186Y-106959400D01*
X146939000Y-106959400D01*
X146939000Y-105766245D01*
X147193000Y-105766245D01*
X147193000Y-106959400D01*
X147213000Y-106959400D01*
X147213000Y-107213400D01*
X147193000Y-107213400D01*
X147193000Y-109499400D01*
X147213000Y-109499400D01*
X147213000Y-109753400D01*
X147193000Y-109753400D01*
X147193000Y-110952650D01*
X147351750Y-111111400D01*
X147916000Y-111114472D01*
X148040482Y-111102212D01*
X148160180Y-111065902D01*
X148270494Y-111006937D01*
X148367185Y-110927585D01*
X148446537Y-110830894D01*
X148505502Y-110720580D01*
X148526393Y-110651713D01*
X148550866Y-110681534D01*
X148776986Y-110867106D01*
X149034966Y-111004999D01*
X149314889Y-111089913D01*
X149533050Y-111111400D01*
X149678950Y-111111400D01*
X149897111Y-111089913D01*
X150177034Y-111004999D01*
X150435014Y-110867106D01*
X150661134Y-110681534D01*
X150846706Y-110455414D01*
X150984599Y-110197434D01*
X151069513Y-109917511D01*
X151098185Y-109626400D01*
X151069513Y-109335289D01*
X150984599Y-109055366D01*
X150846706Y-108797386D01*
X150661134Y-108571266D01*
X150435014Y-108385694D01*
X150380209Y-108356400D01*
X150435014Y-108327106D01*
X150661134Y-108141534D01*
X150846706Y-107915414D01*
X150984599Y-107657434D01*
X151069513Y-107377511D01*
X151098185Y-107086400D01*
X151069513Y-106795289D01*
X150984599Y-106515366D01*
X150846706Y-106257386D01*
X150661134Y-106031266D01*
X150435014Y-105845694D01*
X150177034Y-105707801D01*
X149897111Y-105622887D01*
X149678950Y-105601400D01*
X149533050Y-105601400D01*
X149314889Y-105622887D01*
X149034966Y-105707801D01*
X148776986Y-105845694D01*
X148550866Y-106031266D01*
X148365294Y-106257386D01*
X148330799Y-106321923D01*
X148261178Y-106205045D01*
X148066269Y-105988812D01*
X147832920Y-105814759D01*
X147570099Y-105689575D01*
X147422890Y-105644924D01*
X147193000Y-105766245D01*
X146939000Y-105766245D01*
X146709110Y-105644924D01*
X146561901Y-105689575D01*
X146299080Y-105814759D01*
X146065731Y-105988812D01*
X145870822Y-106205045D01*
X145721843Y-106455148D01*
X145624519Y-106729509D01*
X143429559Y-106729509D01*
X143364599Y-106515366D01*
X143226706Y-106257386D01*
X143041134Y-106031266D01*
X142815014Y-105845694D01*
X142557034Y-105707801D01*
X142277111Y-105622887D01*
X142058950Y-105601400D01*
X141913050Y-105601400D01*
X141694889Y-105622887D01*
X141414966Y-105707801D01*
X141156986Y-105845694D01*
X140930866Y-106031266D01*
X140745294Y-106257386D01*
X140710799Y-106321923D01*
X140641178Y-106205045D01*
X140446269Y-105988812D01*
X140212920Y-105814759D01*
X139950099Y-105689575D01*
X139802890Y-105644924D01*
X139573000Y-105766245D01*
X139319000Y-105766245D01*
X139089110Y-105644924D01*
X138941901Y-105689575D01*
X138679080Y-105814759D01*
X138445731Y-105988812D01*
X138250822Y-106205045D01*
X138101843Y-106455148D01*
X138004519Y-106729509D01*
X136346800Y-106729509D01*
X136346800Y-106509079D01*
X136394416Y-106023453D01*
X136526078Y-105587368D01*
X136739932Y-105185165D01*
X137027837Y-104832160D01*
X137378823Y-104541798D01*
X137779523Y-104325140D01*
X138214681Y-104190436D01*
X138698364Y-104139600D01*
X150335721Y-104139600D01*
X150821347Y-104187216D01*
M02*
