G04 #@! TF.GenerationSoftware,KiCad,Pcbnew,(5.1.4)-1*
G04 #@! TF.CreationDate,2022-05-06T12:43:24-06:00*
G04 #@! TF.ProjectId,Breadboard-Powersupply Board Jumper,42726561-6462-46f6-9172-642d506f7765,rev?*
G04 #@! TF.SameCoordinates,Original*
G04 #@! TF.FileFunction,Soldermask,Bot*
G04 #@! TF.FilePolarity,Negative*
%FSLAX46Y46*%
G04 Gerber Fmt 4.6, Leading zero omitted, Abs format (unit mm)*
G04 Created by KiCad (PCBNEW (5.1.4)-1) date 2022-05-06 12:43:24*
%MOMM*%
%LPD*%
G04 APERTURE LIST*
%ADD10C,0.100000*%
G04 APERTURE END LIST*
D10*
G36*
X149716443Y-108731919D02*
G01*
X149782627Y-108738437D01*
X149952466Y-108789957D01*
X150108991Y-108873622D01*
X150144729Y-108902952D01*
X150246186Y-108986214D01*
X150329448Y-109087671D01*
X150358778Y-109123409D01*
X150442443Y-109279934D01*
X150493963Y-109449773D01*
X150511359Y-109626400D01*
X150493963Y-109803027D01*
X150442443Y-109972866D01*
X150358778Y-110129391D01*
X150329448Y-110165129D01*
X150246186Y-110266586D01*
X150144729Y-110349848D01*
X150108991Y-110379178D01*
X149952466Y-110462843D01*
X149782627Y-110514363D01*
X149716443Y-110520881D01*
X149650260Y-110527400D01*
X149561740Y-110527400D01*
X149495557Y-110520881D01*
X149429373Y-110514363D01*
X149259534Y-110462843D01*
X149103009Y-110379178D01*
X149067271Y-110349848D01*
X148965814Y-110266586D01*
X148882552Y-110165129D01*
X148853222Y-110129391D01*
X148769557Y-109972866D01*
X148718037Y-109803027D01*
X148700641Y-109626400D01*
X148718037Y-109449773D01*
X148769557Y-109279934D01*
X148853222Y-109123409D01*
X148882552Y-109087671D01*
X148965814Y-108986214D01*
X149067271Y-108902952D01*
X149103009Y-108873622D01*
X149259534Y-108789957D01*
X149429373Y-108738437D01*
X149495557Y-108731919D01*
X149561740Y-108725400D01*
X149650260Y-108725400D01*
X149716443Y-108731919D01*
X149716443Y-108731919D01*
G37*
G36*
X147967000Y-110527400D02*
G01*
X146165000Y-110527400D01*
X146165000Y-108725400D01*
X147967000Y-108725400D01*
X147967000Y-110527400D01*
X147967000Y-110527400D01*
G37*
G36*
X142096443Y-108731919D02*
G01*
X142162627Y-108738437D01*
X142332466Y-108789957D01*
X142488991Y-108873622D01*
X142524729Y-108902952D01*
X142626186Y-108986214D01*
X142709448Y-109087671D01*
X142738778Y-109123409D01*
X142822443Y-109279934D01*
X142873963Y-109449773D01*
X142891359Y-109626400D01*
X142873963Y-109803027D01*
X142822443Y-109972866D01*
X142738778Y-110129391D01*
X142709448Y-110165129D01*
X142626186Y-110266586D01*
X142524729Y-110349848D01*
X142488991Y-110379178D01*
X142332466Y-110462843D01*
X142162627Y-110514363D01*
X142096443Y-110520881D01*
X142030260Y-110527400D01*
X141941740Y-110527400D01*
X141875557Y-110520881D01*
X141809373Y-110514363D01*
X141639534Y-110462843D01*
X141483009Y-110379178D01*
X141447271Y-110349848D01*
X141345814Y-110266586D01*
X141262552Y-110165129D01*
X141233222Y-110129391D01*
X141149557Y-109972866D01*
X141098037Y-109803027D01*
X141080641Y-109626400D01*
X141098037Y-109449773D01*
X141149557Y-109279934D01*
X141233222Y-109123409D01*
X141262552Y-109087671D01*
X141345814Y-108986214D01*
X141447271Y-108902952D01*
X141483009Y-108873622D01*
X141639534Y-108789957D01*
X141809373Y-108738437D01*
X141875557Y-108731919D01*
X141941740Y-108725400D01*
X142030260Y-108725400D01*
X142096443Y-108731919D01*
X142096443Y-108731919D01*
G37*
G36*
X140347000Y-110527400D02*
G01*
X138545000Y-110527400D01*
X138545000Y-108725400D01*
X140347000Y-108725400D01*
X140347000Y-110527400D01*
X140347000Y-110527400D01*
G37*
G36*
X149716443Y-106191919D02*
G01*
X149782627Y-106198437D01*
X149952466Y-106249957D01*
X150108991Y-106333622D01*
X150144729Y-106362952D01*
X150246186Y-106446214D01*
X150329448Y-106547671D01*
X150358778Y-106583409D01*
X150442443Y-106739934D01*
X150493963Y-106909773D01*
X150511359Y-107086400D01*
X150493963Y-107263027D01*
X150442443Y-107432866D01*
X150358778Y-107589391D01*
X150329448Y-107625129D01*
X150246186Y-107726586D01*
X150144729Y-107809848D01*
X150108991Y-107839178D01*
X149952466Y-107922843D01*
X149782627Y-107974363D01*
X149716443Y-107980881D01*
X149650260Y-107987400D01*
X149561740Y-107987400D01*
X149495557Y-107980881D01*
X149429373Y-107974363D01*
X149259534Y-107922843D01*
X149103009Y-107839178D01*
X149067271Y-107809848D01*
X148965814Y-107726586D01*
X148882552Y-107625129D01*
X148853222Y-107589391D01*
X148769557Y-107432866D01*
X148718037Y-107263027D01*
X148700641Y-107086400D01*
X148718037Y-106909773D01*
X148769557Y-106739934D01*
X148853222Y-106583409D01*
X148882552Y-106547671D01*
X148965814Y-106446214D01*
X149067271Y-106362952D01*
X149103009Y-106333622D01*
X149259534Y-106249957D01*
X149429373Y-106198437D01*
X149495557Y-106191919D01*
X149561740Y-106185400D01*
X149650260Y-106185400D01*
X149716443Y-106191919D01*
X149716443Y-106191919D01*
G37*
G36*
X147176443Y-106191919D02*
G01*
X147242627Y-106198437D01*
X147412466Y-106249957D01*
X147568991Y-106333622D01*
X147604729Y-106362952D01*
X147706186Y-106446214D01*
X147789448Y-106547671D01*
X147818778Y-106583409D01*
X147902443Y-106739934D01*
X147953963Y-106909773D01*
X147971359Y-107086400D01*
X147953963Y-107263027D01*
X147902443Y-107432866D01*
X147818778Y-107589391D01*
X147789448Y-107625129D01*
X147706186Y-107726586D01*
X147604729Y-107809848D01*
X147568991Y-107839178D01*
X147412466Y-107922843D01*
X147242627Y-107974363D01*
X147176443Y-107980881D01*
X147110260Y-107987400D01*
X147021740Y-107987400D01*
X146955557Y-107980881D01*
X146889373Y-107974363D01*
X146719534Y-107922843D01*
X146563009Y-107839178D01*
X146527271Y-107809848D01*
X146425814Y-107726586D01*
X146342552Y-107625129D01*
X146313222Y-107589391D01*
X146229557Y-107432866D01*
X146178037Y-107263027D01*
X146160641Y-107086400D01*
X146178037Y-106909773D01*
X146229557Y-106739934D01*
X146313222Y-106583409D01*
X146342552Y-106547671D01*
X146425814Y-106446214D01*
X146527271Y-106362952D01*
X146563009Y-106333622D01*
X146719534Y-106249957D01*
X146889373Y-106198437D01*
X146955557Y-106191919D01*
X147021740Y-106185400D01*
X147110260Y-106185400D01*
X147176443Y-106191919D01*
X147176443Y-106191919D01*
G37*
G36*
X142096443Y-106191919D02*
G01*
X142162627Y-106198437D01*
X142332466Y-106249957D01*
X142488991Y-106333622D01*
X142524729Y-106362952D01*
X142626186Y-106446214D01*
X142709448Y-106547671D01*
X142738778Y-106583409D01*
X142822443Y-106739934D01*
X142873963Y-106909773D01*
X142891359Y-107086400D01*
X142873963Y-107263027D01*
X142822443Y-107432866D01*
X142738778Y-107589391D01*
X142709448Y-107625129D01*
X142626186Y-107726586D01*
X142524729Y-107809848D01*
X142488991Y-107839178D01*
X142332466Y-107922843D01*
X142162627Y-107974363D01*
X142096443Y-107980881D01*
X142030260Y-107987400D01*
X141941740Y-107987400D01*
X141875557Y-107980881D01*
X141809373Y-107974363D01*
X141639534Y-107922843D01*
X141483009Y-107839178D01*
X141447271Y-107809848D01*
X141345814Y-107726586D01*
X141262552Y-107625129D01*
X141233222Y-107589391D01*
X141149557Y-107432866D01*
X141098037Y-107263027D01*
X141080641Y-107086400D01*
X141098037Y-106909773D01*
X141149557Y-106739934D01*
X141233222Y-106583409D01*
X141262552Y-106547671D01*
X141345814Y-106446214D01*
X141447271Y-106362952D01*
X141483009Y-106333622D01*
X141639534Y-106249957D01*
X141809373Y-106198437D01*
X141875557Y-106191919D01*
X141941740Y-106185400D01*
X142030260Y-106185400D01*
X142096443Y-106191919D01*
X142096443Y-106191919D01*
G37*
G36*
X139556443Y-106191919D02*
G01*
X139622627Y-106198437D01*
X139792466Y-106249957D01*
X139948991Y-106333622D01*
X139984729Y-106362952D01*
X140086186Y-106446214D01*
X140169448Y-106547671D01*
X140198778Y-106583409D01*
X140282443Y-106739934D01*
X140333963Y-106909773D01*
X140351359Y-107086400D01*
X140333963Y-107263027D01*
X140282443Y-107432866D01*
X140198778Y-107589391D01*
X140169448Y-107625129D01*
X140086186Y-107726586D01*
X139984729Y-107809848D01*
X139948991Y-107839178D01*
X139792466Y-107922843D01*
X139622627Y-107974363D01*
X139556443Y-107980881D01*
X139490260Y-107987400D01*
X139401740Y-107987400D01*
X139335557Y-107980881D01*
X139269373Y-107974363D01*
X139099534Y-107922843D01*
X138943009Y-107839178D01*
X138907271Y-107809848D01*
X138805814Y-107726586D01*
X138722552Y-107625129D01*
X138693222Y-107589391D01*
X138609557Y-107432866D01*
X138558037Y-107263027D01*
X138540641Y-107086400D01*
X138558037Y-106909773D01*
X138609557Y-106739934D01*
X138693222Y-106583409D01*
X138722552Y-106547671D01*
X138805814Y-106446214D01*
X138907271Y-106362952D01*
X138943009Y-106333622D01*
X139099534Y-106249957D01*
X139269373Y-106198437D01*
X139335557Y-106191919D01*
X139401740Y-106185400D01*
X139490260Y-106185400D01*
X139556443Y-106191919D01*
X139556443Y-106191919D01*
G37*
M02*
